/* XPM */
static char *arrow_undo[] = {
/* columns rows colors chars-per-pixel */
"16 16 111 2 ",
"   c #2A6A25",
".  c #2A6B26",
"X  c #2C6D28",
"o  c #2E702A",
"O  c #2F712B",
"+  c #32752D",
"@  c #33752E",
"#  c #367A31",
"$  c #3A7E34",
"%  c #3B7F35",
"&  c #3C8136",
"*  c #3D8237",
"=  c #3E8337",
"-  c #408539",
";  c #40863A",
":  c #41873A",
">  c #438A3C",
",  c #458D3E",
"<  c #478F40",
"1  c #499142",
"2  c #4A9242",
"3  c #4B9443",
"4  c #4E9746",
"5  c #4E9149",
"6  c #4F914A",
"7  c #509947",
"8  c #519C49",
"9  c #539E4B",
"0  c #5A9D54",
"q  c #56A14D",
"w  c #56A24D",
"e  c #57A34E",
"r  c #59A650",
"t  c #5BA852",
"y  c #5DAA53",
"u  c #5FAC55",
"i  c #5DA059",
"p  c #5EA158",
"a  c #60AE56",
"s  c #62A45A",
"d  c #64A55D",
"f  c #65A85F",
"g  c #62B158",
"h  c #64B359",
"j  c #65B55B",
"k  c #67B65C",
"l  c #68B85D",
"z  c #6ABA5F",
"x  c #67A861",
"c  c #69AB63",
"v  c #6AAC62",
"b  c #6BAB64",
"n  c #6BAD64",
"m  c #6EB066",
"M  c #6FB167",
"N  c #6BBC60",
"B  c #6DBE62",
"V  c #6EBF62",
"C  c #70B168",
"Z  c #75B36E",
"A  c #74B46C",
"S  c #74BB6D",
"D  c #77BD70",
"F  c #78B971",
"G  c #7BB873",
"H  c #7ABA74",
"J  c #7BBB75",
"K  c #7CBC76",
"L  c #7CBE76",
"P  c #7DBF77",
"I  c #70C164",
"U  c #70C264",
"Y  c #72C466",
"T  c #7FC179",
"R  c #81BE79",
"E  c #80C179",
"W  c #81C27B",
"Q  c #82C27B",
"!  c #82C27C",
"~  c #84C37E",
"^  c #85C47D",
"/  c #86C47F",
"(  c #87C580",
")  c #88C381",
"_  c #88C682",
"`  c #8AC683",
"'  c #8CC583",
"]  c #8BC785",
"[  c #8DC885",
"{  c #8DC886",
"}  c #90C888",
"|  c #90CA89",
" . c #92CA8A",
".. c #92CB8B",
"X. c #95CD8C",
"o. c #95CC8D",
"O. c #99CF91",
"+. c #9DD094",
"@. c #9FD297",
"#. c #A2D499",
"$. c #A5D59C",
"%. c #A7D69E",
"&. c #A8D79F",
"*. c #AAD8A1",
"=. c #ABD8A2",
"-. c #ACD8A2",
";. c #ADD9A3",
":. c #AEDAA5",
">. c #AFDAA6",
",. c #B0DBA6",
"<. c None",
/* pixels */
"<.<.<.<.<.<.<.<.<.<.<.<.<.<.<.<.",
"<.<.<.<.<.<.<.<.<.<.<.<.<.<.<.<.",
"<.<.Y U B B l j g u r <.<.<.<.<.",
"<.<.U ,.,.-.*.%.%.+.' A 7 <.<.<.",
"<.<.B :.-.*.%.%.#.@.o.O.G < <.<.",
"<.<.z k h a y r q C } o...d <.<.",
"<.<.<.<.<.<.<.<.<.4 2 ) ^ Z & <.",
"<.<.<.<.<.<.<.<.<.<., b ^ R # <.",
"<.<.<.<.<.<.<.<.<.<.; x W L @ <.",
"<.<.<.e 9 <.<.<.<.; * H D x O <.",
"<.<.e C n 3 < > ; 0 H T L 6 <.<.",
"<.q C } } { ` ( ~ W S L p . <.<.",
"<.8 v { ] _ ^ ! T G f 6 . <.<.<.",
"<.<.2 s p = % # + O X <.<.<.<.<.",
"<.<.<.: * <.<.<.<.<.<.<.<.<.<.<.",
"<.<.<.<.<.<.<.<.<.<.<.<.<.<.<.<."
};
