/* XPM */
static char *bug[] = {
/* columns rows colors chars-per-pixel */
"16 16 130 2 ",
"   c #1E571C",
".  c #1F591C",
"X  c #205C1D",
"o  c #215E1E",
"O  c #215F1E",
"+  c #22611F",
"@  c #22631F",
"#  c #3B5925",
"$  c #236520",
"%  c #236620",
"&  c #246821",
"*  c #246921",
"=  c #256B22",
"-  c #266C22",
";  c #276D22",
":  c #266E23",
">  c #277023",
",  c #237420",
"<  c #277124",
"1  c #287324",
"2  c #2B7326",
"3  c #2A7726",
"4  c #2A7926",
"5  c #2E712A",
"6  c #2E792A",
"7  c #2E7B2A",
"8  c #2D7E2A",
"9  c #397D36",
"0  c #445026",
"q  c #58713B",
"w  c #667F46",
"e  c #2E8329",
"r  c #2E852A",
"t  c #2D8929",
"y  c #2D8F28",
"u  c #33872F",
"i  c #30892B",
"p  c #318D2C",
"a  c #328C2D",
"s  c #379532",
"d  c #3A9235",
"f  c #389C33",
"g  c #3A9D33",
"h  c #389E33",
"j  c #3E9738",
"k  c #38A133",
"l  c #39A134",
"z  c #39A434",
"x  c #39A534",
"c  c #3AA634",
"v  c #3AA735",
"b  c #3AA835",
"n  c #3BAA36",
"m  c #3CAB36",
"M  c #3CAC36",
"N  c #3CAD37",
"B  c #3DAF37",
"V  c #3EA538",
"C  c #3FA539",
"Z  c #3EA938",
"A  c #3DAC38",
"S  c #3DB138",
"D  c #3EB138",
"F  c #3EB238",
"G  c #3EB338",
"H  c #3FB73A",
"J  c #50863A",
"K  c #40B73A",
"L  c #5C9F42",
"P  c #539F4B",
"I  c #549E4D",
"U  c #609A46",
"Y  c #629C47",
"T  c #639D47",
"R  c #679E4D",
"E  c #788C5F",
"W  c #4BAC45",
"Q  c #5DA141",
"!  c #5DA342",
"~  c #5DA044",
"^  c #54A24C",
"/  c #57A64E",
"(  c #5FB74F",
")  c #56AD50",
"_  c #59AA51",
"`  c #59A952",
"'  c #6AA14D",
"]  c #6AA24E",
"[  c #70AA4D",
"{  c #72AC4E",
"}  c #73AD4F",
"|  c #62A457",
" . c #6DA351",
".. c #73A857",
"X. c #7BB258",
"o. c #7EB45C",
"O. c #68AD62",
"+. c #6FA168",
"@. c #6FA06A",
"#. c #73A26B",
"$. c #76B260",
"%. c #7AA675",
"&. c #7EC272",
"*. c #80B55E",
"=. c #82AF6C",
"-. c #84B962",
";. c #8CBC6D",
":. c #84B070",
">. c #84B071",
",. c #85B171",
"<. c #82B577",
"1. c #8CB379",
"2. c #8CB478",
"3. c #91BE77",
"4. c #96BF83",
"5. c #99BE86",
"6. c #95BF8E",
"7. c #99BE89",
"8. c #8EC385",
"9. c #98C185",
"0. c #9DC094",
"q. c #A5CC8D",
"w. c #A8CE90",
"e. c #AAC897",
"r. c #ACCF94",
"t. c #A9CB9A",
"y. c #ADD49E",
"u. c #B8D7A4",
"i. c #C2E3AF",
"p. c None",
/* pixels */
"p.p.p.p.p.p.p.H p.p.p.A p.p.p.p.",
"p.p.p.p.p.p.p.G M p.p.V p.p.p.p.",
"p.p.p.K p.p.p.M M J J g q p.p.p.",
"p.p.p.G G p.A n z l 3.i.E p.p.p.",
"p.p.p.p.M Z W y.u.8.y ( e.p i r ",
"G p.p.p.z V w.-.X.$.j t | 0 p.p.",
"M n z V ) q.*.} ! ) e.0.e # p.p.",
"p.z l h r.o.} ! / 9...5.8 4 p.p.",
"p.p.j ` ;.[ L ^ 4.] Y 7.4 1 < - ",
"p.p.s O.3.L P 2.] Y >.@.< p.p.p.",
"p.p.d p <.I 1.R U >.9 = p.p.p.p.",
"p.p.p.u , 0.=.R >.%.= = $ p.p.p.",
"p.p.p.p.7 7 #.#.5 - p.p.O O p.p.",
"p.p.p.p.p.1 - - @ @ p.p.p.p.p.p.",
"p.p.p.p.p.p.p.p.@ O p.p.p.p.p.p.",
"p.p.p.p.p.p.p.p.p.    p.p.p.p.p."
};
