/* XPM */
static char *restart[] = {
/* columns rows colors chars-per-pixel */
"16 16 97 2 ",
"   c #31732C",
".  c #33762E",
"X  c #367930",
"o  c #377B31",
"O  c #3A7E34",
"+  c #3B7F35",
"@  c #3E8337",
"#  c #3E8438",
"$  c #43893C",
"%  c #458C3E",
"&  c #468D3F",
"*  c #489040",
"=  c #499141",
"-  c #499142",
";  c #4E9746",
":  c #4E9846",
">  c #509947",
",  c #52954D",
"<  c #54964E",
"1  c #509A48",
"2  c #529C4A",
"3  c #539D4A",
"4  c #539E4B",
"5  c #549F4B",
"6  c #5B9D55",
"7  c #5A9E55",
"8  c #55A04C",
"9  c #56A14D",
"0  c #58A34F",
"q  c #59A650",
"w  c #5EA157",
"e  c #5CA953",
"r  c #5DAA53",
"t  c #60AE56",
"y  c #61A35A",
"u  c #66A95F",
"i  c #63B158",
"p  c #63B259",
"a  c #66B55B",
"s  c #66B65C",
"d  c #69B95E",
"f  c #6ABA5F",
"g  c #68AA60",
"h  c #69AB61",
"j  c #6AAB63",
"k  c #6AAD63",
"l  c #6CAE63",
"z  c #6FAF67",
"x  c #6CBC60",
"c  c #6DBF62",
"v  c #6EBF62",
"b  c #74B56D",
"n  c #77B771",
"m  c #79B871",
"M  c #78BA70",
"N  c #7EBC75",
"B  c #7CBF75",
"V  c #7EC177",
"C  c #81C077",
"Z  c #82C27B",
"A  c #85C77B",
"S  c #82C27C",
"D  c #84C17C",
"F  c #84C07D",
"G  c #85C37E",
"H  c #85C47E",
"J  c #87C47F",
"K  c #87C87C",
"L  c #87C581",
"P  c #88C582",
"I  c #89C682",
"U  c #8BC683",
"Y  c #8AC783",
"T  c #8BC785",
"R  c #8CCA82",
"E  c #8CC885",
"W  c #8FC987",
"Q  c #8FC988",
"!  c #90C989",
"~  c #97CC8E",
"^  c #98CE90",
"/  c #99CE90",
"(  c #9BCF93",
")  c #9BD092",
"_  c #9DD194",
"`  c #9ED196",
"'  c #A0D197",
"]  c #A1D396",
"[  c #A2D499",
"{  c #A4D49B",
"}  c #A6D59C",
"|  c #A6D59D",
" . c #A7D69E",
".. c #A9D7A0",
"X. c #AAD8A0",
"o. c #ABD8A1",
"O. c None",
/* pixels */
"O.O.O.O.O.O.O.O.O.O.O.O.O.O.O.O.",
"O.O.O.O.O.O.O.O.O.O.O.O.O.O.O.O.",
"O.O.O.O.O.O.f f a p O.O.O.O.O.O.",
"O.O.O.O.v K ] .. ./ M 0 O.O.O.O.",
"O.O.O.c R o.[  .{ ( _ M > O.O.O.",
"O.O.O.A .. .' C N ~ ( / h O.O.O.",
"O.O.f _  ._ r q 9 2 ! E F $ O.O.",
"O.O.s p r r O.O.O.; z Q E # O.O.",
"O.O.O.O.O.O.9 O.O.- k Y L + O.O.",
"O.O.O.O.O.5 : O.- & F V n X O.O.",
"O.O.O.O.5 l h - y L H G < O.O.O.",
"O.O.O.2 z E E L F V C 6   O.O.O.",
"O.O.O.: u L L F G b ,   O.O.O.O.",
"O.O.O.O.& w 6 @ X . O.O.O.O.O.O.",
"O.O.O.O.O.@ + O.O.O.O.O.O.O.O.O.",
"O.O.O.O.O.O.X O.O.O.O.O.O.O.O.O."
};
